<svg width="21" height="22" viewBox="0 0 21 22" fill="none" xmlns="http://www.w3.org/2000/svg">
<g clip-path="url(#clip0_98_1892)">
<path d="M11.4721 20.6767C13.5762 18.0435 18.375 11.6614 18.375 8.07666C18.375 3.729 14.8477 0.20166 10.5 0.20166C6.15234 0.20166 2.625 3.729 2.625 8.07666C2.625 11.6614 7.42383 18.0435 9.52793 20.6767C10.0324 21.3042 10.9676 21.3042 11.4721 20.6767ZM10.5 5.45166C11.1962 5.45166 11.8639 5.72822 12.3562 6.2205C12.8484 6.71279 13.125 7.38047 13.125 8.07666C13.125 8.77285 12.8484 9.44053 12.3562 9.93281C11.8639 10.4251 11.1962 10.7017 10.5 10.7017C9.80381 10.7017 9.13613 10.4251 8.64384 9.93281C8.15156 9.44053 7.875 8.77285 7.875 8.07666C7.875 7.38047 8.15156 6.71279 8.64384 6.2205C9.13613 5.72822 9.80381 5.45166 10.5 5.45166Z" fill="#975309"/>
</g>
<defs>
<clipPath id="clip0_98_1892">
<rect width="21" height="21" fill="white" transform="translate(0 0.20166)"/>
</clipPath>
</defs>
</svg>
