<svg width="24" height="25" viewBox="0 0 24 25" fill="none" xmlns="http://www.w3.org/2000/svg">
<path d="M23.5392 10.1549C24.2198 14.1796 22.0888 18.0262 18.2343 19.911C18.8437 21.5095 17.6531 23.2017 15.9693 23.2017C15.3489 23.2012 14.7523 22.9627 14.3026 22.5353C13.8528 22.108 13.5841 21.5244 13.552 20.9048C13.2501 20.9137 10.5426 20.9048 9.97399 20.8748C9.96114 21.1929 9.88573 21.5054 9.75206 21.7943C9.61839 22.0833 9.42908 22.343 9.19496 22.5588C8.96084 22.7745 8.6865 22.942 8.38761 23.0517C8.08872 23.1614 7.77115 23.211 7.45305 23.1979C5.86587 23.1342 4.73665 21.5648 5.24993 20.0142C3.50571 19.3996 1.84962 18.3796 0.580242 16.6954C-0.029133 15.8854 0.557742 14.736 1.55712 14.736C3.7279 14.736 3.06743 12.1968 3.57977 9.5676C4.44368 5.16416 9.05243 2.20166 13.5041 2.20166C18.3079 2.20166 22.7456 5.51432 23.5392 10.1549ZM17.5082 18.9023C19.477 18.0032 21.3206 16.244 22.0218 14.1145C23.9193 8.34463 19.0148 3.42697 13.5041 3.42697C9.59243 3.42697 5.5204 6.02479 4.78212 9.80197C4.3354 12.0946 5.01649 15.959 1.55946 15.959C2.72852 17.511 4.29368 18.4256 5.95305 18.9613C7.10899 17.9395 8.94696 18.2362 9.69509 19.6335C10.3616 19.6804 13.4071 19.6888 13.8154 19.672C13.9803 19.3499 14.2151 19.0689 14.5028 18.8495C14.7905 18.6301 15.1236 18.478 15.4778 18.4041C15.8319 18.3303 16.1981 18.3368 16.5495 18.423C16.9008 18.5092 17.2284 18.6729 17.5082 18.9023ZM9.61493 9.47338C9.61493 7.84494 11.9981 7.84447 11.9981 9.47338C11.9981 11.1023 9.61493 11.1018 9.61493 9.47338ZM15.0791 9.47338C15.0791 7.84494 17.4632 7.84447 17.4632 9.47338C17.4632 11.1023 15.0791 11.1023 15.0791 9.47338ZM9.3318 12.787C9.17055 11.9929 10.3715 11.7473 10.5327 12.5428L10.5356 12.5559C10.7296 13.5599 11.9348 14.6184 13.5412 14.5748C15.2137 14.5307 16.3185 13.5337 16.5463 12.5699C16.7554 11.8176 17.887 12.0843 17.7402 12.8512C17.4951 13.8909 16.2773 15.7574 13.4531 15.7996C11.4585 15.7996 9.6618 14.4946 9.33274 12.7879L9.3318 12.787Z" fill="#975309"/>
</svg>
