<svg width="83" height="31" viewBox="0 0 83 31" fill="none" xmlns="http://www.w3.org/2000/svg">
<path opacity="0.8" d="M0 1.75662C0 1.75662 21.1819 1.32028 32.9629 18.0199C32.9629 18.0199 34.3909 21.0345 32.0902 22.2642C30.7812 22.9782 27.8459 22.6609 26.5369 24.3269C26.5369 24.3269 35.2636 24.6442 42.6812 30.7528C42.6812 30.7528 42.9192 25.9532 41.1342 24.0889C41.1342 24.0889 60.5708 14.0532 82.3081 30.0785C82.3081 30.0785 73.4624 14.6879 46.3702 15.5606C46.3702 15.5606 46.4098 11.5542 42.1258 10.2056C42.1258 10.2056 38.3179 8.85692 35.5809 12.1889C35.6206 12.2682 24.9106 -5.54202 0 1.75662Z" fill="#262626"/>
</svg>
