<svg width="157" height="53" viewBox="0 0 157 53" fill="none" xmlns="http://www.w3.org/2000/svg">
<path opacity="0.8" d="M0 44.9892C0 44.9892 32.2363 22.4356 67.779 36.015C67.779 36.015 73.0927 39.2032 70.8492 43.4542C69.5503 45.9339 64.7089 48.4136 64.3546 52.4284C64.3546 52.4284 78.1702 43.9265 96.0006 45.6977C96.0006 45.6977 91.3954 38.0223 86.7902 36.9596C86.7902 36.9596 106.392 1.41695 156.577 3.66051C156.577 3.66051 127.056 -10.9816 86.0817 18.3027C86.0817 18.3027 81.9488 12.0444 74.0373 14.406C74.0373 14.406 66.7162 16.2953 66.0078 24.2068C65.8897 24.443 30.9375 8.02954 0 44.9892Z" fill="#262626"/>
</svg>
